<mxfile host="app.diagrams.net" agent="Mozilla/5.0 (Macintosh; Intel Mac OS X 10_15_7) AppleWebKit/537.36 (KHTML, like Gecko) Chrome/135.0.0.0 Safari/537.36" version="26.2.14">
  <diagram name="Architecture Overview" id="architecture-overview">
    <mxGraphModel dx="1188" dy="667" grid="1" gridSize="10" guides="1" tooltips="1" connect="1" arrows="1" fold="1" page="1" pageScale="1" pageWidth="850" pageHeight="1100" math="0" shadow="0">
      <root>
        <mxCell id="0" />
        <mxCell id="1" parent="0" />
        <mxCell id="k3s-title" value="K3s Kubernetes Cluster" style="text;html=1;strokeColor=none;fillColor=none;align=center;verticalAlign=middle;whiteSpace=wrap;rounded=0;fontSize=16;fontStyle=1" parent="1" vertex="1">
          <mxGeometry x="300" y="10" width="240" height="30" as="geometry" />
        </mxCell>
        <mxCell id="k3s-node" value="K3s Node" style="rounded=0;whiteSpace=wrap;html=1;fillColor=#f5f5f5;strokeColor=#666666;dashed=1;verticalAlign=top;fontStyle=1" parent="1" vertex="1">
          <mxGeometry x="160" y="50" width="570" height="400" as="geometry" />
        </mxCell>
        <mxCell id="ingress" value="Ingress Controller&#xa;(Traefik)" style="rounded=1;fillColor=#66CCFF;strokeColor=#000000;fontStyle=1;fontSize=12;" parent="1" vertex="1">
          <mxGeometry x="180" y="90" width="140" height="60" as="geometry" />
        </mxCell>
        <mxCell id="app-pod" value="API Pod" style="rounded=0;whiteSpace=wrap;html=1;fillColor=#d5e8d4;strokeColor=#82b366;dashed=1;verticalAlign=top;fontStyle=1" parent="1" vertex="1">
          <mxGeometry x="350" y="90" width="360" height="220" as="geometry" />
        </mxCell>
        <mxCell id="express-container" value="Express.js API Container" style="rounded=0;whiteSpace=wrap;html=1;fillColor=#CCFFCC;strokeColor=#82b366;verticalAlign=top;fontStyle=1" parent="1" vertex="1">
          <mxGeometry x="360" y="120" width="340" height="180" as="geometry" />
        </mxCell>
        <mxCell id="middleware" value="Middleware&#xa;- Auth JWT&#xa;- Role Check&#xa;- Validation" style="rounded=1;fillColor=#CCFF99;fontSize=10;" parent="1" vertex="1">
          <mxGeometry x="370" y="150" width="80" height="70" as="geometry" />
        </mxCell>
        <mxCell id="routes" value="Routes&#xa;- Users&#xa;- Tasks" style="rounded=1;fillColor=#CCFF99;fontSize=10;" parent="1" vertex="1">
          <mxGeometry x="480" y="150" width="80" height="70" as="geometry" />
        </mxCell>
        <mxCell id="controllers" value="Controllers&#xa;- User Controller&#xa;- Task Controller" style="rounded=1;fillColor=#CCFF99;fontSize=10;" parent="1" vertex="1">
          <mxGeometry x="590" y="150" width="100" height="70" as="geometry" />
        </mxCell>
        <mxCell id="client" value="Client Applications" style="rounded=1;fillColor=#FFCC00;fontStyle=1;fontSize=12;" parent="1" vertex="1">
          <mxGeometry x="20" y="90" width="120" height="60" as="geometry" />
        </mxCell>
        <mxCell id="models" value="Models&#xa;- User Model&#xa;- Task Model" style="rounded=1;fillColor=#CCFF99;fontSize=10;" parent="1" vertex="1">
          <mxGeometry x="480" y="250" width="90" height="40" as="geometry" />
        </mxCell>
        <mxCell id="client-to-ingress" style="edgeStyle=orthogonalEdgeStyle;rounded=1;orthogonalLoop=1;" parent="1" source="client" target="ingress" edge="1">
          <mxGeometry relative="1" as="geometry" />
        </mxCell>
        <mxCell id="ingress-to-express" style="edgeStyle=orthogonalEdgeStyle;rounded=1;orthogonalLoop=1;" parent="1" source="ingress" target="express-container" edge="1">
          <mxGeometry relative="1" as="geometry" />
        </mxCell>
        <mxCell id="express-to-mongo" style="edgeStyle=orthogonalEdgeStyle;rounded=1;orthogonalLoop=1;entryX=0.5;entryY=0;entryDx=0;entryDy=0;exitX=0.5;exitY=1;exitDx=0;exitDy=0;" parent="1" source="models" target="mongo-pod" edge="1">
          <mxGeometry relative="1" as="geometry">
            <mxPoint x="520" y="300" as="sourcePoint" />
            <Array as="points">
              <mxPoint x="525" y="320" />
              <mxPoint x="420" y="320" />
            </Array>
          </mxGeometry>
        </mxCell>
        <mxCell id="express-to-redis" style="edgeStyle=orthogonalEdgeStyle;rounded=1;orthogonalLoop=1;entryX=0.5;entryY=0;entryDx=0;entryDy=0;exitX=0.5;exitY=1;exitDx=0;exitDy=0;" parent="1" source="models" target="redis-pod" edge="1">
          <mxGeometry relative="1" as="geometry">
            <Array as="points">
              <mxPoint x="525" y="320" />
              <mxPoint x="640" y="320" />
            </Array>
          </mxGeometry>
        </mxCell>
        <mxCell id="mongo-label" value="Persistent Storage" style="text;html=1;align=center;verticalAlign=middle;resizable=0;points=[];fontSize=10;" parent="1" vertex="1">
          <mxGeometry x="310" y="320" width="100" height="20" as="geometry" />
        </mxCell>
        <mxCell id="redis-label" value="Cache Layer" style="text;html=1;align=center;verticalAlign=middle;resizable=0;points=[];fontSize=10;" parent="1" vertex="1">
          <mxGeometry x="640" y="320" width="80" height="20" as="geometry" />
        </mxCell>
        <mxCell id="request-label" value="HTTPS Requests" style="text;html=1;align=center;verticalAlign=middle;resizable=0;points=[];fontSize=10;" parent="1" vertex="1">
          <mxGeometry x="28" y="150" width="100" height="20" as="geometry" />
        </mxCell>
        <mxCell id="middleware-to-routes" style="edgeStyle=orthogonalEdgeStyle;rounded=1;orthogonalLoop=1;entryX=0;entryY=0.5;entryDx=0;entryDy=0;exitX=1;exitY=0.5;exitDx=0;exitDy=0;" parent="1" source="middleware" target="routes" edge="1">
          <mxGeometry relative="1" as="geometry" />
        </mxCell>
        <mxCell id="routes-to-controllers" style="edgeStyle=orthogonalEdgeStyle;rounded=1;orthogonalLoop=1;entryX=0;entryY=0.5;entryDx=0;entryDy=0;exitX=1;exitY=0.5;exitDx=0;exitDy=0;" parent="1" source="routes" target="controllers" edge="1">
          <mxGeometry relative="1" as="geometry" />
        </mxCell>
        <mxCell id="controllers-to-models" style="edgeStyle=orthogonalEdgeStyle;rounded=1;orthogonalLoop=1;entryX=0.5;entryY=0;entryDx=0;entryDy=0;exitX=0.5;exitY=1;exitDx=0;exitDy=0;" parent="1" source="controllers" target="models" edge="1">
          <mxGeometry relative="1" as="geometry" />
        </mxCell>
        <mxCell id="bG6pgV3Egd0GDlEO9T67-1" value="" style="group" vertex="1" connectable="0" parent="1">
          <mxGeometry x="560" y="340" width="160" height="100" as="geometry" />
        </mxCell>
        <mxCell id="redis-pod" value="Redis Pod" style="rounded=0;whiteSpace=wrap;html=1;fillColor=#f8cecc;strokeColor=#b85450;dashed=1;verticalAlign=top;fontStyle=1" parent="bG6pgV3Egd0GDlEO9T67-1" vertex="1">
          <mxGeometry width="160" height="100" as="geometry" />
        </mxCell>
        <mxCell id="redis-container" value="Redis Container" style="rounded=1;fillColor=#FF9999;fontSize=12;fontStyle=1" parent="bG6pgV3Egd0GDlEO9T67-1" vertex="1">
          <mxGeometry x="20" y="30" width="120" height="60" as="geometry" />
        </mxCell>
        <mxCell id="bG6pgV3Egd0GDlEO9T67-2" value="" style="group" vertex="1" connectable="0" parent="1">
          <mxGeometry x="340" y="340" width="160" height="100" as="geometry" />
        </mxCell>
        <mxCell id="mongo-pod" value="MongoDB Pod" style="rounded=0;whiteSpace=wrap;html=1;fillColor=#fff2cc;strokeColor=#d6b656;dashed=1;verticalAlign=top;fontStyle=1" parent="bG6pgV3Egd0GDlEO9T67-2" vertex="1">
          <mxGeometry width="160" height="100" as="geometry" />
        </mxCell>
        <mxCell id="mongo-container" value="MongoDB Container" style="rounded=1;fillColor=#FFCC99;fontSize=12;fontStyle=1" parent="bG6pgV3Egd0GDlEO9T67-2" vertex="1">
          <mxGeometry x="20" y="30" width="120" height="60" as="geometry" />
        </mxCell>
      </root>
    </mxGraphModel>
  </diagram>
</mxfile>
